<?xml version="1.0" encoding="UTF-8"?>
<svg id="Calque_1" data-name="Calque 1" xmlns="http://www.w3.org/2000/svg" viewBox="0 0 275.07 169.61">
  <defs>
    <style>
      .cls-1 {
        fill: #fff;
      }

      .cls-2 {
        fill: none;
        stroke: #fff;
        stroke-miterlimit: 10;
        stroke-width: 16.5px;
      }
    </style>
  </defs>
  <rect class="cls-1" x="89.25" y=".04" width="10.54" height="47.04"/>
  <rect class="cls-1" x="61.12" y="126.88" width="213.96" height="10.81"/>
  <circle class="cls-1" cx="200.03" cy="30.7" r="9.45"/>
  <path class="cls-2" d="m84.8,161.36c-42.28,0-76.55-34.27-76.55-76.55S42.52,8.25,84.8,8.25"/>
  <g>
    <path class="cls-1" d="m105.66,44.61V15.96h5.12c3.05,0,5.35.59,6.89,1.77,1.55,1.18,2.32,3.15,2.32,5.9,0,1.71-.3,3.13-.91,4.29-.61,1.15-1.5,1.94-2.67,2.37l4.61,14.33h-4.06l-4.13-13.3h-3.07v13.3h-4.09Zm4.09-16.38h1.02c1.71,0,2.98-.36,3.84-1.08.85-.72,1.28-1.9,1.28-3.53s-.43-2.81-1.28-3.53c-.85-.72-2.13-1.08-3.84-1.08h-1.02v9.21Z"/>
    <path class="cls-1" d="m121.72,44.61l6.14-28.66h4.09l6.14,28.66h-4.09l-1.54-7.16h-5.12l-1.54,7.16h-4.09Zm6.14-10.23h4.09l-2.05-12.28-2.05,12.28Z"/>
    <path class="cls-1" d="m140.53,44.61V15.96h6.35c3,0,5.11.61,6.34,1.84,1.23,1.23,1.85,3.34,1.85,6.35v11.26c0,3.15-.63,5.47-1.88,6.96-1.25,1.5-3.37,2.25-6.34,2.25h-6.32Zm4.09-3.07h2.25c.67,0,1.25-.06,1.73-.18.48-.12.87-.35,1.17-.67.3-.33.53-.63.7-.93.17-.29.29-.75.36-1.37.07-.62.11-1.13.12-1.53.01-.4.02-1.02.02-1.86v-9.83c0-.52,0-.94,0-1.25s-.02-.67-.05-1.1c-.03-.42-.07-.75-.12-1-.05-.25-.13-.52-.22-.82-.1-.3-.22-.54-.36-.71-.14-.17-.32-.35-.53-.54-.21-.19-.45-.33-.72-.42-.27-.09-.59-.17-.95-.22-.36-.06-.77-.09-1.22-.09h-2.17v22.52Z"/>
    <path class="cls-1" d="m159.16,44.61V15.96h4.09v28.66h-4.09Z"/>
    <path class="cls-1" d="m174.96,44.9c-1.44,0-2.67-.22-3.7-.66-1.03-.44-1.85-1.08-2.45-1.92s-1.05-1.83-1.33-2.97c-.28-1.14-.42-2.46-.42-3.96v-10.39c0-1.5.14-2.81.42-3.93.28-1.12.72-2.09,1.33-2.92s1.43-1.45,2.45-1.86c1.03-.42,2.26-.62,3.7-.62,2.79,0,4.81.8,6.04,2.4,1.24,1.6,1.85,3.91,1.85,6.94v10.39c0,1.48-.14,2.79-.42,3.93-.28,1.14-.73,2.13-1.34,2.97-.61.85-1.43,1.49-2.45,1.93-1.03.44-2.26.66-3.69.66Zm-2.98-4.65c.55.86,1.54,1.3,2.98,1.3s2.43-.43,2.98-1.3c.55-.86.82-2.14.82-3.82v-12.44c0-1.66-.27-2.9-.82-3.73-.54-.82-1.54-1.23-2.99-1.23s-2.45.41-2.99,1.23-.82,2.06-.82,3.73v12.44c0,1.68.27,2.96.82,3.82Z"/>
  </g>
  <g>
    <path class="cls-1" d="m67.7,118.7V52.2h7.12l16.62,41.12v-41.12h9.5v66.5h-6.75l-17-44.23v44.23h-9.5Z"/>
    <path class="cls-1" d="m108.15,118.7v-9.5h9.5v9.5h-9.5Z"/>
    <path class="cls-1" d="m120.7,118.7l14.25-66.5h9.5l14.25,66.5h-9.5l-3.56-16.62h-11.88l-3.56,16.62h-9.5Zm14.25-23.75h9.5l-4.75-28.5-4.75,28.5Z"/>
    <path class="cls-1" d="m161.74,118.7v-9.5h9.5v9.5h-9.5Z"/>
    <path class="cls-1" d="m196.26,119.37c-3.04,0-5.68-.43-7.92-1.3-2.24-.87-4.06-2.04-5.47-3.53s-2.54-3.38-3.38-5.68c-.84-2.3-1.42-4.72-1.74-7.27-.32-2.55-.48-5.48-.48-8.79v-16.85c0-16.28,6.46-24.42,19.37-24.42,3.09,0,5.78.46,8.05,1.39,2.28.93,4.12,2.28,5.53,4.06s2.47,3.87,3.19,6.25c.72,2.39,1.14,5.15,1.26,8.29.02.45.04,1.13.04,2.04h-9.5v-2c-.03-1.56-.11-2.9-.24-4.03-.14-1.13-.38-2.23-.74-3.32-.36-1.09-.85-1.97-1.47-2.65-.62-.68-1.44-1.22-2.47-1.63-1.03-.41-2.25-.61-3.66-.61-1.93,0-3.56.35-4.88,1.06-1.32.71-2.34,1.73-3.04,3.08-.71,1.35-1.21,2.83-1.5,4.45-.3,1.62-.45,3.51-.45,5.66v21.38c0,1.58.05,3.01.15,4.29.1,1.27.27,2.57.5,3.9.23,1.32.58,2.47,1.04,3.43.46.96,1.03,1.84,1.71,2.62.68.78,1.53,1.37,2.56,1.78,1.03.41,2.21.61,3.54.61,1.58,0,2.96-.31,4.12-.93,1.16-.62,2.08-1.42,2.76-2.39.68-.98,1.22-2.22,1.61-3.73.4-1.51.66-3.01.8-4.49.14-1.48.2-3.18.2-5.08v-2.38h-9.5v-7.05h19v33.18h-7.12l-2.38-7.12c-1.86,5.2-5.02,7.79-9.5,7.79Z"/>
    <path class="cls-1" d="m220.64,118.7v-9.5h9.5v9.5h-9.5Z"/>
  </g>
</svg>